<svg width="20" height="20" viewBox="0 0 20 20" fill="none" xmlns="http://www.w3.org/2000/svg">
<path fill-rule="evenodd" clip-rule="evenodd" d="M3.41421 0.585786C2.63316 -0.195262 1.36683 -0.195262 0.585786 0.585786C-0.195262 1.36683 -0.195262 2.63316 0.585786 3.41421L7.17157 10L0.585786 16.5858C-0.195262 17.3668 -0.195262 18.6332 0.585787 19.4142C1.36684 20.1953 2.63317 20.1953 3.41421 19.4142L10 12.8284L16.5858 19.4142C17.3668 20.1953 18.6332 20.1953 19.4142 19.4142C20.1953 18.6332 20.1953 17.3668 19.4142 16.5858L12.8284 10L19.4142 3.41421C20.1953 2.63317 20.1953 1.36684 19.4142 0.585788C18.6332 -0.195262 17.3668 -0.195262 16.5858 0.585788L10 7.17157L3.41421 0.585786Z" fill="black"/>
</svg>
