<svg width="76" height="73" viewBox="0 0 76 73" fill="none" xmlns="http://www.w3.org/2000/svg">
<g filter="url(#filter0_d_381_4138)">
<path d="M1 51V1H22L29.35 8.74648H64V51H1Z" fill="#FEE220"/>
<path d="M0.5 51V51.5H1H64H64.5V51V8.74648V8.24648H64H29.5648L22.3627 0.655851L22.2148 0.5H22H1H0.5V1V51Z" stroke="black"/>
</g>
<path d="M7.68477 69H6.15477L5.50477 62.36H5.38477L4.73477 69H3.20477L2.49477 62H3.25477L3.92477 68.64H4.04477L4.67477 62H6.21477L6.84477 68.64H6.96477L7.63477 62H8.39477L7.68477 69ZM12.9778 68.16H12.8578C12.6978 68.4933 12.4745 68.74 12.1878 68.9C11.9078 69.06 11.6111 69.14 11.2978 69.14C10.9711 69.14 10.6678 69.0867 10.3878 68.98C10.1078 68.8667 9.86115 68.7033 9.64781 68.49C9.44115 68.27 9.27781 68.0033 9.15781 67.69C9.03781 67.3767 8.97781 67.0133 8.97781 66.6V66.44C8.97781 66.0333 9.03781 65.6733 9.15781 65.36C9.27781 65.0467 9.44115 64.7833 9.64781 64.57C9.86115 64.35 10.1078 64.1833 10.3878 64.07C10.6678 63.9567 10.9645 63.9 11.2778 63.9C11.6178 63.9 11.9245 63.9767 12.1978 64.13C12.4778 64.2767 12.6978 64.5067 12.8578 64.82H12.9778V64.04H13.7578V67.98C13.7578 68.18 13.8478 68.28 14.0278 68.28H14.2778V69H13.7478C13.5211 69 13.3345 68.9267 13.1878 68.78C13.0478 68.6333 12.9778 68.4467 12.9778 68.22V68.16ZM11.3778 68.4C11.6111 68.4 11.8245 68.3567 12.0178 68.27C12.2178 68.1833 12.3878 68.06 12.5278 67.9C12.6678 67.74 12.7778 67.55 12.8578 67.33C12.9378 67.1033 12.9778 66.8533 12.9778 66.58V66.46C12.9778 66.1933 12.9378 65.95 12.8578 65.73C12.7778 65.5033 12.6645 65.31 12.5178 65.15C12.3778 64.99 12.2078 64.8667 12.0078 64.78C11.8145 64.6867 11.6045 64.64 11.3778 64.64C11.1445 64.64 10.9311 64.6833 10.7378 64.77C10.5445 64.8567 10.3745 64.98 10.2278 65.14C10.0878 65.2933 9.97781 65.4833 9.89781 65.71C9.81781 65.93 9.77781 66.1733 9.77781 66.44V66.6C9.77781 67.1667 9.92448 67.61 10.2178 67.93C10.5178 68.2433 10.9045 68.4 11.3778 68.4ZM15.5009 68.28H17.3009V62.72H15.5609V62H18.0809V68.28H19.8809V69H15.5009V68.28ZM21.6239 68.28H23.4239V62.72H21.6839V62H24.2039V68.28H26.0039V69H21.6239V68.28ZM28.347 71H27.567V64.04H28.347V64.82H28.467C28.6403 64.52 28.8803 64.2933 29.187 64.14C29.4936 63.98 29.827 63.9 30.187 63.9C30.4936 63.9 30.7836 63.9567 31.057 64.07C31.3303 64.1833 31.5703 64.3467 31.777 64.56C31.9903 64.7733 32.157 65.0367 32.277 65.35C32.4036 65.6633 32.467 66.02 32.467 66.42V66.62C32.467 67.0267 32.407 67.3867 32.287 67.7C32.167 68.0133 32.0003 68.2767 31.787 68.49C31.5803 68.7033 31.337 68.8667 31.057 68.98C30.777 69.0867 30.4803 69.14 30.167 69.14C30.007 69.14 29.8436 69.12 29.677 69.08C29.5103 69.0467 29.3503 68.9933 29.197 68.92C29.0503 68.84 28.9136 68.7467 28.787 68.64C28.6603 68.5267 28.5536 68.3933 28.467 68.24H28.347V71ZM30.007 68.4C30.247 68.4 30.467 68.36 30.667 68.28C30.867 68.1933 31.0403 68.0733 31.187 67.92C31.3403 67.7667 31.457 67.58 31.537 67.36C31.6236 67.14 31.667 66.8933 31.667 66.62V66.42C31.667 66.1533 31.6236 65.9133 31.537 65.7C31.457 65.48 31.3403 65.2933 31.187 65.14C31.0403 64.98 30.8636 64.8567 30.657 64.77C30.457 64.6833 30.2403 64.64 30.007 64.64C29.7736 64.64 29.557 64.6867 29.357 64.78C29.157 64.8667 28.9803 64.99 28.827 65.15C28.6803 65.31 28.5636 65.5033 28.477 65.73C28.3903 65.95 28.347 66.1933 28.347 66.46V66.58C28.347 66.8533 28.3903 67.1033 28.477 67.33C28.5636 67.55 28.6803 67.74 28.827 67.9C28.9803 68.06 29.157 68.1833 29.357 68.27C29.557 68.3567 29.7736 68.4 30.007 68.4ZM37.47 68.16H37.35C37.19 68.4933 36.9667 68.74 36.68 68.9C36.4 69.06 36.1033 69.14 35.79 69.14C35.4633 69.14 35.16 69.0867 34.88 68.98C34.6 68.8667 34.3533 68.7033 34.14 68.49C33.9333 68.27 33.77 68.0033 33.65 67.69C33.53 67.3767 33.47 67.0133 33.47 66.6V66.44C33.47 66.0333 33.53 65.6733 33.65 65.36C33.77 65.0467 33.9333 64.7833 34.14 64.57C34.3533 64.35 34.6 64.1833 34.88 64.07C35.16 63.9567 35.4567 63.9 35.77 63.9C36.11 63.9 36.4167 63.9767 36.69 64.13C36.97 64.2767 37.19 64.5067 37.35 64.82H37.47V64.04H38.25V67.98C38.25 68.18 38.34 68.28 38.52 68.28H38.77V69H38.24C38.0133 69 37.8267 68.9267 37.68 68.78C37.54 68.6333 37.47 68.4467 37.47 68.22V68.16ZM35.87 68.4C36.1033 68.4 36.3167 68.3567 36.51 68.27C36.71 68.1833 36.88 68.06 37.02 67.9C37.16 67.74 37.27 67.55 37.35 67.33C37.43 67.1033 37.47 66.8533 37.47 66.58V66.46C37.47 66.1933 37.43 65.95 37.35 65.73C37.27 65.5033 37.1567 65.31 37.01 65.15C36.87 64.99 36.7 64.8667 36.5 64.78C36.3067 64.6867 36.0967 64.64 35.87 64.64C35.6367 64.64 35.4233 64.6833 35.23 64.77C35.0367 64.8567 34.8667 64.98 34.72 65.14C34.58 65.2933 34.47 65.4833 34.39 65.71C34.31 65.93 34.27 66.1733 34.27 66.44V66.6C34.27 67.1667 34.4167 67.61 34.71 67.93C35.01 68.2433 35.3967 68.4 35.87 68.4ZM40.593 71H39.813V64.04H40.593V64.82H40.713C40.8864 64.52 41.1264 64.2933 41.433 64.14C41.7397 63.98 42.073 63.9 42.433 63.9C42.7397 63.9 43.0297 63.9567 43.303 64.07C43.5764 64.1833 43.8164 64.3467 44.023 64.56C44.2364 64.7733 44.403 65.0367 44.523 65.35C44.6497 65.6633 44.713 66.02 44.713 66.42V66.62C44.713 67.0267 44.653 67.3867 44.533 67.7C44.413 68.0133 44.2464 68.2767 44.033 68.49C43.8264 68.7033 43.583 68.8667 43.303 68.98C43.023 69.0867 42.7264 69.14 42.413 69.14C42.253 69.14 42.0897 69.12 41.923 69.08C41.7564 69.0467 41.5964 68.9933 41.443 68.92C41.2964 68.84 41.1597 68.7467 41.033 68.64C40.9064 68.5267 40.7997 68.3933 40.713 68.24H40.593V71ZM42.253 68.4C42.493 68.4 42.713 68.36 42.913 68.28C43.113 68.1933 43.2864 68.0733 43.433 67.92C43.5864 67.7667 43.703 67.58 43.783 67.36C43.8697 67.14 43.913 66.8933 43.913 66.62V66.42C43.913 66.1533 43.8697 65.9133 43.783 65.7C43.703 65.48 43.5864 65.2933 43.433 65.14C43.2864 64.98 43.1097 64.8567 42.903 64.77C42.703 64.6833 42.4864 64.64 42.253 64.64C42.0197 64.64 41.803 64.6867 41.603 64.78C41.403 64.8667 41.2264 64.99 41.073 65.15C40.9264 65.31 40.8097 65.5033 40.723 65.73C40.6364 65.95 40.593 66.1933 40.593 66.46V66.58C40.593 66.8533 40.6364 67.1033 40.723 67.33C40.8097 67.55 40.9264 67.74 41.073 67.9C41.2264 68.06 41.403 68.1833 41.603 68.27C41.803 68.3567 42.0197 68.4 42.253 68.4ZM46.6861 66.76C46.7061 67.2533 46.8594 67.65 47.1461 67.95C47.4328 68.25 47.8328 68.4 48.3461 68.4C48.5794 68.4 48.7828 68.3733 48.9561 68.32C49.1294 68.2667 49.2761 68.1933 49.3961 68.1C49.5228 68.0067 49.6228 67.9 49.6961 67.78C49.7761 67.6533 49.8394 67.52 49.8861 67.38L50.6261 67.58C50.4861 68.04 50.2261 68.4167 49.8461 68.71C49.4728 68.9967 48.9661 69.14 48.3261 69.14C47.9728 69.14 47.6461 69.08 47.3461 68.96C47.0528 68.8333 46.7994 68.6567 46.5861 68.43C46.3728 68.2033 46.2061 67.9333 46.0861 67.62C45.9661 67.3067 45.9061 66.96 45.9061 66.58V66.34C45.9061 65.9933 45.9661 65.67 46.0861 65.37C46.2128 65.07 46.3861 64.8133 46.6061 64.6C46.8261 64.38 47.0828 64.21 47.3761 64.09C47.6761 63.9633 47.9994 63.9 48.3461 63.9C48.7528 63.9 49.1028 63.9767 49.3961 64.13C49.6961 64.2767 49.9394 64.46 50.1261 64.68C50.3194 64.9 50.4594 65.14 50.5461 65.4C50.6394 65.66 50.6861 65.9 50.6861 66.12V66.76H46.6861ZM48.3461 64.64C48.1261 64.64 47.9194 64.6767 47.7261 64.75C47.5394 64.8167 47.3728 64.9133 47.2261 65.04C47.0861 65.1667 46.9694 65.3167 46.8761 65.49C46.7894 65.6567 46.7328 65.84 46.7061 66.04H49.9061C49.8928 65.8267 49.8394 65.6333 49.7461 65.46C49.6594 65.2867 49.5428 65.14 49.3961 65.02C49.2561 64.9 49.0928 64.8067 48.9061 64.74C48.7261 64.6733 48.5394 64.64 48.3461 64.64ZM51.9591 64.04H53.7591V64.7H53.8791C54.0058 64.4267 54.1858 64.2267 54.4191 64.1C54.6525 63.9667 54.9191 63.9 55.2191 63.9C55.7191 63.9 56.1225 64.0633 56.4291 64.39C56.7358 64.7167 56.8991 65.1933 56.9191 65.82L56.0991 65.94C56.0991 65.48 55.9891 65.15 55.7691 64.95C55.5491 64.7433 55.2791 64.64 54.9591 64.64C54.7525 64.64 54.5725 64.68 54.4191 64.76C54.2725 64.84 54.1491 64.95 54.0491 65.09C53.9491 65.23 53.8758 65.3933 53.8291 65.58C53.7825 65.7667 53.7591 65.9667 53.7591 66.18V68.28H55.0191V69H51.8391V68.28H52.9791V64.76H51.9591V64.04ZM59.3922 65.32C59.3922 65.56 59.4922 65.7433 59.6922 65.87C59.8989 65.9967 60.2722 66.08 60.8122 66.12C61.3922 66.1667 61.8322 66.3067 62.1322 66.54C62.4389 66.7667 62.5922 67.1 62.5922 67.54V67.6C62.5922 67.84 62.5422 68.0567 62.4422 68.25C62.3489 68.4367 62.2155 68.5967 62.0422 68.73C61.8755 68.8633 61.6689 68.9633 61.4222 69.03C61.1822 69.1033 60.9189 69.14 60.6322 69.14C60.2455 69.14 59.9122 69.09 59.6322 68.99C59.3589 68.8833 59.1289 68.7467 58.9422 68.58C58.7622 68.4067 58.6255 68.2133 58.5322 68C58.4389 67.78 58.3855 67.56 58.3722 67.34L59.1122 67.16C59.1455 67.54 59.2922 67.8467 59.5522 68.08C59.8122 68.3067 60.1589 68.42 60.5922 68.42C60.9589 68.42 61.2522 68.35 61.4722 68.21C61.6989 68.0633 61.8122 67.86 61.8122 67.6C61.8122 67.32 61.7022 67.12 61.4822 67C61.2622 66.88 60.9055 66.8033 60.4122 66.77C59.8389 66.73 59.3989 66.5967 59.0922 66.37C58.7855 66.1433 58.6322 65.8133 58.6322 65.38V65.32C58.6322 65.0867 58.6822 64.8833 58.7822 64.71C58.8822 64.53 59.0155 64.38 59.1822 64.26C59.3555 64.14 59.5489 64.05 59.7622 63.99C59.9755 63.93 60.1989 63.9 60.4322 63.9C60.7589 63.9 61.0455 63.9467 61.2922 64.04C61.5389 64.1267 61.7455 64.2433 61.9122 64.39C62.0789 64.53 62.2055 64.6933 62.2922 64.88C62.3855 65.0667 62.4455 65.2533 62.4722 65.44L61.7322 65.62C61.6989 65.3 61.5689 65.05 61.3422 64.87C61.1222 64.69 60.8322 64.6 60.4722 64.6C60.3322 64.6 60.1955 64.6167 60.0622 64.65C59.9355 64.6767 59.8222 64.72 59.7222 64.78C59.6222 64.84 59.5422 64.9167 59.4822 65.01C59.4222 65.0967 59.3922 65.2 59.3922 65.32Z" fill="black"/>
<g filter="url(#filter1_d_381_4138)">
<path d="M75 8L65 54V8H75Z" fill="#FD9B06"/>
<path d="M65.5 8.5H74.3796L65.5 49.3463V8.5Z" stroke="black"/>
</g>
<defs>
<filter id="filter0_d_381_4138" x="0" y="0" width="67" height="54" filterUnits="userSpaceOnUse" color-interpolation-filters="sRGB">
<feFlood flood-opacity="0" result="BackgroundImageFix"/>
<feColorMatrix in="SourceAlpha" type="matrix" values="0 0 0 0 0 0 0 0 0 0 0 0 0 0 0 0 0 0 127 0" result="hardAlpha"/>
<feOffset dx="2" dy="2"/>
<feComposite in2="hardAlpha" operator="out"/>
<feColorMatrix type="matrix" values="0 0 0 0 0 0 0 0 0 0 0 0 0 0 0 0 0 0 1 0"/>
<feBlend mode="normal" in2="BackgroundImageFix" result="effect1_dropShadow_381_4138"/>
<feBlend mode="normal" in="SourceGraphic" in2="effect1_dropShadow_381_4138" result="shape"/>
</filter>
<filter id="filter1_d_381_4138" x="65" y="8" width="11" height="46" filterUnits="userSpaceOnUse" color-interpolation-filters="sRGB">
<feFlood flood-opacity="0" result="BackgroundImageFix"/>
<feColorMatrix in="SourceAlpha" type="matrix" values="0 0 0 0 0 0 0 0 0 0 0 0 0 0 0 0 0 0 127 0" result="hardAlpha"/>
<feOffset dx="1"/>
<feComposite in2="hardAlpha" operator="out"/>
<feColorMatrix type="matrix" values="0 0 0 0 0 0 0 0 0 0 0 0 0 0 0 0 0 0 1 0"/>
<feBlend mode="normal" in2="BackgroundImageFix" result="effect1_dropShadow_381_4138"/>
<feBlend mode="normal" in="SourceGraphic" in2="effect1_dropShadow_381_4138" result="shape"/>
</filter>
</defs>
</svg>
