<svg width="12" height="13" viewBox="0 0 12 13" fill="none" xmlns="http://www.w3.org/2000/svg">
<path fill-rule="evenodd" clip-rule="evenodd" d="M5.84021 1.81395C6.71733 1.81395 7.67354 2.622 7.67354 3.93023H4.00688C4.00688 2.622 4.96309 1.81395 5.84021 1.81395ZM1.56243 3.93023H2.17354C2.17354 1.75962 3.81517 0 5.84021 0C7.86525 0 9.50688 1.75962 9.50688 3.93023H10.118C10.793 3.93023 11.3402 4.47166 11.3402 5.13953V9.97674C11.3402 11.6464 9.97219 13 8.28465 13H3.39577C1.70823 13 0.34021 11.6464 0.34021 9.97674V5.13953C0.34021 4.47166 0.887417 3.93023 1.56243 3.93023ZM5.84021 10.5814C6.85273 10.5814 7.67354 9.76926 7.67354 8.76744C7.67354 7.76562 6.85273 6.95349 5.84021 6.95349C4.82769 6.95349 4.00688 7.76562 4.00688 8.76744C4.00688 9.76926 4.82769 10.5814 5.84021 10.5814Z" fill="#4FFDA2"/>
</svg>

