<svg width="12" height="15" viewBox="0 0 14 17" fill="none" xmlns="http://www.w3.org/2000/svg">
<path fill-rule="evenodd" clip-rule="evenodd" d="M8.88022 2.41992C9.38832 2.03885 9.4913 1.31802 9.11022 0.809923C8.72914 0.301821 8.00832 0.198846 7.50022 0.579923L4.56689 2.77992C3.42022 3.63992 3.42022 5.35992 4.56689 6.21992L7.50022 8.41992C8.00832 8.801 8.72914 8.69802 9.11022 8.18992C9.4913 7.68182 9.38832 6.961 8.88022 6.57992L7.85017 5.80738C8.39046 5.95687 8.90033 6.21037 9.3497 6.55755C10.1067 7.14242 10.6498 7.96052 10.895 8.88522C11.1401 9.80992 11.0736 10.7896 10.7057 11.6727C10.3378 12.5558 9.68912 13.293 8.85999 13.7701C8.03085 14.2473 7.06755 14.4379 6.11919 14.3123C5.17084 14.1867 4.29033 13.752 3.61396 13.0755C2.93759 12.3989 2.5031 11.5183 2.37774 10.5699C2.25238 9.62155 2.44314 8.65828 2.9205 7.82925C3.23743 7.27885 3.04815 6.57574 2.49775 6.25881C1.94734 5.94189 1.24423 6.13116 0.92731 6.68157C0.197557 7.94893 -0.0940695 9.4215 0.0975735 10.8713C0.289217 12.3212 0.953441 13.6674 1.98742 14.7016C3.02141 15.7359 4.36748 16.4004 5.81727 16.5924C7.26705 16.7843 8.7397 16.4931 10.0072 15.7636C11.2747 15.0341 12.2665 13.9072 12.8289 12.5572C13.3912 11.2072 13.4929 9.70947 13.1182 8.29585C12.7434 6.88224 11.9132 5.63157 10.7559 4.73747C9.82374 4.01732 8.72133 3.56083 7.5635 3.40746L8.88022 2.41992Z" fill="black"/>
</svg>
